<svg width="320" height="56" viewBox="0 0 320 56" fill="none" xmlns="http://www.w3.org/2000/svg">
<rect x="0.5" y="0.5" width="319" height="55" rx="16" fill="white"/>
<g clip-path="url(#clip0_760_7197)">
<path d="M111.6 28.2273C111.6 27.5182 111.536 26.8364 111.418 26.1818H102V30.05H107.382C107.15 31.3 106.446 32.3591 105.386 33.0682V35.5773H108.618C110.509 33.8364 111.6 31.2727 111.6 28.2273V28.2273Z" fill="#4285F4"/>
<path d="M102 38C104.7 38 106.964 37.1045 108.618 35.5773L105.386 33.0682C104.491 33.6682 103.345 34.0227 102 34.0227C99.3954 34.0227 97.1909 32.2636 96.4045 29.9H93.0636V32.4909C94.7091 35.7591 98.0909 38 102 38Z" fill="#34A853"/>
<path d="M96.4045 29.9C96.2045 29.3 96.0909 28.6591 96.0909 28C96.0909 27.3409 96.2045 26.7 96.4045 26.1V23.5091H93.0636C92.3864 24.8591 92 26.3864 92 28C92 29.6136 92.3864 31.1409 93.0636 32.4909L96.4045 29.9V29.9Z" fill="#FBBC04"/>
<path d="M102 21.9773C103.468 21.9773 104.786 22.4818 105.823 23.4727L108.691 20.6045C106.959 18.9909 104.695 18 102 18C98.0909 18 94.7091 20.2409 93.0636 23.5091L96.4045 26.1C97.1909 23.7364 99.3954 21.9773 102 21.9773Z" fill="#E94235"/>
</g>
<path d="M123.891 29.7598H125.6C125.545 30.4115 125.363 30.9925 125.053 31.5029C124.743 32.0088 124.308 32.4076 123.747 32.6992C123.186 32.9909 122.505 33.1367 121.703 33.1367C121.088 33.1367 120.534 33.0273 120.042 32.8086C119.55 32.5853 119.128 32.2708 118.777 31.8652C118.426 31.4551 118.158 30.9606 117.971 30.3818C117.788 29.8031 117.697 29.1559 117.697 28.4404V27.6133C117.697 26.8978 117.791 26.2507 117.978 25.6719C118.169 25.0931 118.442 24.5986 118.798 24.1885C119.153 23.7738 119.579 23.457 120.076 23.2383C120.578 23.0195 121.14 22.9102 121.765 22.9102C122.558 22.9102 123.228 23.056 123.774 23.3477C124.321 23.6393 124.745 24.0426 125.046 24.5576C125.351 25.0726 125.538 25.6628 125.606 26.3281H123.898C123.852 25.8997 123.752 25.5329 123.597 25.2275C123.446 24.9222 123.223 24.6898 122.927 24.5303C122.631 24.3662 122.243 24.2842 121.765 24.2842C121.373 24.2842 121.031 24.3571 120.739 24.5029C120.448 24.6488 120.204 24.863 120.008 25.1455C119.812 25.4281 119.664 25.7767 119.564 26.1914C119.468 26.6016 119.42 27.071 119.42 27.5996V28.4404C119.42 28.9417 119.463 29.3975 119.55 29.8076C119.641 30.2132 119.778 30.5618 119.96 30.8535C120.147 31.1452 120.384 31.3708 120.671 31.5303C120.958 31.6898 121.302 31.7695 121.703 31.7695C122.191 31.7695 122.585 31.6921 122.886 31.5371C123.191 31.3822 123.421 31.1566 123.576 30.8604C123.736 30.5596 123.84 30.1927 123.891 29.7598ZM126.68 29.3838V29.2266C126.68 28.6934 126.757 28.1989 126.912 27.7432C127.067 27.2829 127.29 26.8841 127.582 26.5469C127.878 26.2051 128.238 25.9408 128.662 25.7539C129.091 25.5625 129.574 25.4668 130.111 25.4668C130.654 25.4668 131.137 25.5625 131.561 25.7539C131.989 25.9408 132.351 26.2051 132.648 26.5469C132.944 26.8841 133.169 27.2829 133.324 27.7432C133.479 28.1989 133.557 28.6934 133.557 29.2266V29.3838C133.557 29.917 133.479 30.4115 133.324 30.8672C133.169 31.3229 132.944 31.7217 132.648 32.0635C132.351 32.4007 131.991 32.665 131.567 32.8564C131.144 33.0433 130.663 33.1367 130.125 33.1367C129.583 33.1367 129.097 33.0433 128.669 32.8564C128.245 32.665 127.885 32.4007 127.589 32.0635C127.293 31.7217 127.067 31.3229 126.912 30.8672C126.757 30.4115 126.68 29.917 126.68 29.3838ZM128.327 29.2266V29.3838C128.327 29.7165 128.361 30.0309 128.43 30.3271C128.498 30.6234 128.605 30.8831 128.751 31.1064C128.897 31.3298 129.084 31.5052 129.312 31.6328C129.539 31.7604 129.811 31.8242 130.125 31.8242C130.43 31.8242 130.695 31.7604 130.918 31.6328C131.146 31.5052 131.333 31.3298 131.478 31.1064C131.624 30.8831 131.731 30.6234 131.8 30.3271C131.873 30.0309 131.909 29.7165 131.909 29.3838V29.2266C131.909 28.8984 131.873 28.5885 131.8 28.2969C131.731 28.0007 131.622 27.7386 131.472 27.5107C131.326 27.2829 131.139 27.1051 130.911 26.9775C130.688 26.8454 130.421 26.7793 130.111 26.7793C129.801 26.7793 129.533 26.8454 129.305 26.9775C129.081 27.1051 128.897 27.2829 128.751 27.5107C128.605 27.7386 128.498 28.0007 128.43 28.2969C128.361 28.5885 128.327 28.8984 128.327 29.2266ZM136.571 27.1826V33H134.924V25.6035H136.476L136.571 27.1826ZM136.277 29.0283L135.744 29.0215C135.749 28.4974 135.822 28.0166 135.963 27.5791C136.109 27.1416 136.309 26.7656 136.565 26.4512C136.824 26.1367 137.134 25.8952 137.494 25.7266C137.854 25.5534 138.255 25.4668 138.697 25.4668C139.053 25.4668 139.374 25.5169 139.661 25.6172C139.953 25.7129 140.201 25.8701 140.406 26.0889C140.616 26.3076 140.775 26.5924 140.885 26.9434C140.994 27.2897 141.049 27.7158 141.049 28.2217V33H139.395V28.2148C139.395 27.8594 139.342 27.5791 139.237 27.374C139.137 27.1644 138.989 27.0163 138.793 26.9297C138.602 26.8385 138.362 26.793 138.075 26.793C137.793 26.793 137.54 26.8522 137.316 26.9707C137.093 27.0892 136.904 27.251 136.749 27.4561C136.599 27.6611 136.482 27.8981 136.4 28.167C136.318 28.4359 136.277 28.723 136.277 29.0283ZM146.121 25.6035V26.8066H141.951V25.6035H146.121ZM143.154 23.792H144.802V30.9561C144.802 31.1839 144.834 31.3594 144.898 31.4824C144.966 31.6009 145.059 31.6807 145.178 31.7217C145.296 31.7627 145.435 31.7832 145.595 31.7832C145.709 31.7832 145.818 31.7764 145.923 31.7627C146.028 31.749 146.112 31.7354 146.176 31.7217L146.183 32.9795C146.046 33.0205 145.886 33.057 145.704 33.0889C145.526 33.1208 145.321 33.1367 145.089 33.1367C144.711 33.1367 144.376 33.0706 144.084 32.9385C143.792 32.8018 143.565 32.5807 143.4 32.2754C143.236 31.9701 143.154 31.5645 143.154 31.0586V23.792ZM149.156 25.6035V33H147.502V25.6035H149.156ZM147.393 23.6621C147.393 23.4115 147.475 23.2041 147.639 23.04C147.807 22.8714 148.04 22.7871 148.336 22.7871C148.628 22.7871 148.858 22.8714 149.026 23.04C149.195 23.2041 149.279 23.4115 149.279 23.6621C149.279 23.9082 149.195 24.1133 149.026 24.2773C148.858 24.4414 148.628 24.5234 148.336 24.5234C148.04 24.5234 147.807 24.4414 147.639 24.2773C147.475 24.1133 147.393 23.9082 147.393 23.6621ZM152.595 27.1826V33H150.947V25.6035H152.499L152.595 27.1826ZM152.301 29.0283L151.768 29.0215C151.772 28.4974 151.845 28.0166 151.986 27.5791C152.132 27.1416 152.333 26.7656 152.588 26.4512C152.848 26.1367 153.158 25.8952 153.518 25.7266C153.878 25.5534 154.279 25.4668 154.721 25.4668C155.076 25.4668 155.398 25.5169 155.685 25.6172C155.976 25.7129 156.225 25.8701 156.43 26.0889C156.639 26.3076 156.799 26.5924 156.908 26.9434C157.018 27.2897 157.072 27.7158 157.072 28.2217V33H155.418V28.2148C155.418 27.8594 155.366 27.5791 155.261 27.374C155.16 27.1644 155.012 27.0163 154.816 26.9297C154.625 26.8385 154.386 26.793 154.099 26.793C153.816 26.793 153.563 26.8522 153.34 26.9707C153.117 27.0892 152.927 27.251 152.772 27.4561C152.622 27.6611 152.506 27.8981 152.424 28.167C152.342 28.4359 152.301 28.723 152.301 29.0283ZM163.204 31.2568V25.6035H164.858V33H163.3L163.204 31.2568ZM163.437 29.7188L163.99 29.7051C163.99 30.2018 163.936 30.6598 163.826 31.0791C163.717 31.4938 163.548 31.8561 163.32 32.166C163.092 32.4714 162.801 32.7106 162.445 32.8838C162.09 33.0524 161.664 33.1367 161.167 33.1367C160.807 33.1367 160.477 33.0843 160.176 32.9795C159.875 32.8747 159.615 32.7129 159.397 32.4941C159.182 32.2754 159.016 31.9906 158.898 31.6396C158.779 31.2887 158.72 30.8695 158.72 30.3818V25.6035H160.367V30.3955C160.367 30.6644 160.399 30.89 160.463 31.0723C160.527 31.25 160.613 31.3936 160.723 31.5029C160.832 31.6123 160.96 31.6898 161.106 31.7354C161.251 31.7809 161.406 31.8037 161.57 31.8037C162.04 31.8037 162.409 31.7126 162.678 31.5303C162.951 31.3434 163.145 31.0928 163.259 30.7783C163.377 30.4639 163.437 30.1107 163.437 29.7188ZM171.549 31.3594L173.258 25.6035H174.311L174.023 27.3262L172.301 33H171.357L171.549 31.3594ZM170.544 25.6035L171.877 31.3867L171.986 33H170.934L168.931 25.6035H170.544ZM175.91 31.3184L177.202 25.6035H178.809L176.812 33H175.76L175.91 31.3184ZM174.488 25.6035L176.177 31.291L176.389 33H175.445L173.702 27.3193L173.415 25.6035H174.488ZM181.693 25.6035V33H180.039V25.6035H181.693ZM179.93 23.6621C179.93 23.4115 180.012 23.2041 180.176 23.04C180.344 22.8714 180.577 22.7871 180.873 22.7871C181.165 22.7871 181.395 22.8714 181.563 23.04C181.732 23.2041 181.816 23.4115 181.816 23.6621C181.816 23.9082 181.732 24.1133 181.563 24.2773C181.395 24.4414 181.165 24.5234 180.873 24.5234C180.577 24.5234 180.344 24.4414 180.176 24.2773C180.012 24.1133 179.93 23.9082 179.93 23.6621ZM186.889 25.6035V26.8066H182.719V25.6035H186.889ZM183.922 23.792H185.569V30.9561C185.569 31.1839 185.601 31.3594 185.665 31.4824C185.733 31.6009 185.827 31.6807 185.945 31.7217C186.064 31.7627 186.203 31.7832 186.362 31.7832C186.476 31.7832 186.586 31.7764 186.69 31.7627C186.795 31.749 186.88 31.7354 186.943 31.7217L186.95 32.9795C186.813 33.0205 186.654 33.057 186.472 33.0889C186.294 33.1208 186.089 33.1367 185.856 33.1367C185.478 33.1367 185.143 33.0706 184.852 32.9385C184.56 32.8018 184.332 32.5807 184.168 32.2754C184.004 31.9701 183.922 31.5645 183.922 31.0586V23.792ZM189.787 22.5V33H188.146V22.5H189.787ZM189.5 29.0283L188.967 29.0215C188.971 28.5111 189.042 28.0394 189.179 27.6064C189.32 27.1735 189.516 26.7975 189.767 26.4785C190.022 26.1549 190.327 25.9066 190.683 25.7334C191.038 25.5557 191.432 25.4668 191.865 25.4668C192.23 25.4668 192.558 25.5169 192.85 25.6172C193.146 25.7174 193.401 25.8792 193.615 26.1025C193.829 26.3213 193.991 26.6084 194.101 26.9639C194.215 27.3148 194.271 27.7432 194.271 28.249V33H192.617V28.2354C192.617 27.8799 192.565 27.5973 192.46 27.3877C192.36 27.1781 192.212 27.0277 192.016 26.9365C191.82 26.8408 191.58 26.793 191.298 26.793C191.002 26.793 190.74 26.8522 190.512 26.9707C190.288 27.0892 190.102 27.251 189.951 27.4561C189.801 27.6611 189.687 27.8981 189.609 28.167C189.536 28.4359 189.5 28.723 189.5 29.0283ZM207.232 27.9141V31.7148C207.091 31.9017 206.87 32.1068 206.569 32.3301C206.273 32.5488 205.879 32.738 205.387 32.8975C204.895 33.057 204.282 33.1367 203.548 33.1367C202.924 33.1367 202.352 33.0319 201.832 32.8223C201.312 32.6081 200.864 32.2959 200.485 31.8857C200.112 31.4756 199.822 30.9766 199.617 30.3887C199.412 29.7962 199.31 29.1217 199.31 28.3652V27.6748C199.31 26.9229 199.403 26.2529 199.59 25.665C199.781 25.0726 200.055 24.5713 200.41 24.1611C200.766 23.751 201.194 23.4411 201.695 23.2314C202.201 23.0173 202.773 22.9102 203.411 22.9102C204.227 22.9102 204.901 23.0469 205.435 23.3203C205.972 23.5892 206.387 23.9629 206.679 24.4414C206.97 24.9199 207.155 25.4668 207.232 26.082H205.551C205.496 25.7357 205.389 25.4258 205.229 25.1523C205.075 24.8789 204.851 24.6647 204.56 24.5098C204.272 24.3503 203.899 24.2705 203.438 24.2705C203.042 24.2705 202.693 24.3457 202.393 24.4961C202.092 24.6465 201.841 24.8675 201.641 25.1592C201.445 25.4508 201.297 25.8063 201.196 26.2256C201.096 26.6449 201.046 27.1234 201.046 27.6611V28.3652C201.046 28.9121 201.103 29.3975 201.217 29.8213C201.335 30.2451 201.504 30.6029 201.723 30.8945C201.946 31.1862 202.217 31.4072 202.536 31.5576C202.855 31.7035 203.215 31.7764 203.616 31.7764C204.008 31.7764 204.329 31.7445 204.58 31.6807C204.831 31.6123 205.029 31.5326 205.175 31.4414C205.325 31.3457 205.441 31.2546 205.523 31.168V29.1924H203.452V27.9141H207.232ZM208.654 29.3838V29.2266C208.654 28.6934 208.732 28.1989 208.887 27.7432C209.042 27.2829 209.265 26.8841 209.557 26.5469C209.853 26.2051 210.213 25.9408 210.637 25.7539C211.065 25.5625 211.548 25.4668 212.086 25.4668C212.628 25.4668 213.111 25.5625 213.535 25.7539C213.964 25.9408 214.326 26.2051 214.622 26.5469C214.918 26.8841 215.144 27.2829 215.299 27.7432C215.454 28.1989 215.531 28.6934 215.531 29.2266V29.3838C215.531 29.917 215.454 30.4115 215.299 30.8672C215.144 31.3229 214.918 31.7217 214.622 32.0635C214.326 32.4007 213.966 32.665 213.542 32.8564C213.118 33.0433 212.637 33.1367 212.1 33.1367C211.557 33.1367 211.072 33.0433 210.644 32.8564C210.22 32.665 209.86 32.4007 209.563 32.0635C209.267 31.7217 209.042 31.3229 208.887 30.8672C208.732 30.4115 208.654 29.917 208.654 29.3838ZM210.302 29.2266V29.3838C210.302 29.7165 210.336 30.0309 210.404 30.3271C210.473 30.6234 210.58 30.8831 210.726 31.1064C210.871 31.3298 211.058 31.5052 211.286 31.6328C211.514 31.7604 211.785 31.8242 212.1 31.8242C212.405 31.8242 212.669 31.7604 212.893 31.6328C213.12 31.5052 213.307 31.3298 213.453 31.1064C213.599 30.8831 213.706 30.6234 213.774 30.3271C213.847 30.0309 213.884 29.7165 213.884 29.3838V29.2266C213.884 28.8984 213.847 28.5885 213.774 28.2969C213.706 28.0007 213.597 27.7386 213.446 27.5107C213.3 27.2829 213.114 27.1051 212.886 26.9775C212.662 26.8454 212.396 26.7793 212.086 26.7793C211.776 26.7793 211.507 26.8454 211.279 26.9775C211.056 27.1051 210.871 27.2829 210.726 27.5107C210.58 27.7386 210.473 28.0007 210.404 28.2969C210.336 28.5885 210.302 28.8984 210.302 29.2266ZM216.598 29.3838V29.2266C216.598 28.6934 216.675 28.1989 216.83 27.7432C216.985 27.2829 217.208 26.8841 217.5 26.5469C217.796 26.2051 218.156 25.9408 218.58 25.7539C219.008 25.5625 219.492 25.4668 220.029 25.4668C220.572 25.4668 221.055 25.5625 221.479 25.7539C221.907 25.9408 222.269 26.2051 222.565 26.5469C222.862 26.8841 223.087 27.2829 223.242 27.7432C223.397 28.1989 223.475 28.6934 223.475 29.2266V29.3838C223.475 29.917 223.397 30.4115 223.242 30.8672C223.087 31.3229 222.862 31.7217 222.565 32.0635C222.269 32.4007 221.909 32.665 221.485 32.8564C221.062 33.0433 220.581 33.1367 220.043 33.1367C219.501 33.1367 219.015 33.0433 218.587 32.8564C218.163 32.665 217.803 32.4007 217.507 32.0635C217.211 31.7217 216.985 31.3229 216.83 30.8672C216.675 30.4115 216.598 29.917 216.598 29.3838ZM218.245 29.2266V29.3838C218.245 29.7165 218.279 30.0309 218.348 30.3271C218.416 30.6234 218.523 30.8831 218.669 31.1064C218.815 31.3298 219.002 31.5052 219.229 31.6328C219.457 31.7604 219.729 31.8242 220.043 31.8242C220.348 31.8242 220.613 31.7604 220.836 31.6328C221.064 31.5052 221.251 31.3298 221.396 31.1064C221.542 30.8831 221.649 30.6234 221.718 30.3271C221.791 30.0309 221.827 29.7165 221.827 29.3838V29.2266C221.827 28.8984 221.791 28.5885 221.718 28.2969C221.649 28.0007 221.54 27.7386 221.39 27.5107C221.244 27.2829 221.057 27.1051 220.829 26.9775C220.606 26.8454 220.339 26.7793 220.029 26.7793C219.719 26.7793 219.451 26.8454 219.223 26.9775C218.999 27.1051 218.815 27.2829 218.669 27.5107C218.523 27.7386 218.416 28.0007 218.348 28.2969C218.279 28.5885 218.245 28.8984 218.245 29.2266ZM229.593 25.6035H231.09V32.7949C231.09 33.4603 230.949 34.0254 230.666 34.4902C230.383 34.9551 229.989 35.3083 229.483 35.5498C228.978 35.7959 228.392 35.9189 227.727 35.9189C227.444 35.9189 227.13 35.8779 226.783 35.7959C226.441 35.7139 226.109 35.5817 225.785 35.3994C225.466 35.2217 225.2 34.987 224.985 34.6953L225.758 33.7246C226.022 34.0391 226.314 34.2692 226.633 34.415C226.952 34.5609 227.287 34.6338 227.638 34.6338C228.016 34.6338 228.337 34.5632 228.602 34.4219C228.87 34.2852 229.078 34.0824 229.224 33.8135C229.369 33.5446 229.442 33.2165 229.442 32.8291V27.2783L229.593 25.6035ZM224.568 29.3838V29.2402C224.568 28.6797 224.637 28.1693 224.773 27.709C224.91 27.2441 225.106 26.8454 225.361 26.5127C225.617 26.1755 225.926 25.918 226.291 25.7402C226.656 25.5579 227.068 25.4668 227.528 25.4668C228.007 25.4668 228.415 25.5534 228.752 25.7266C229.094 25.8997 229.379 26.1481 229.606 26.4717C229.834 26.7907 230.012 27.1735 230.14 27.6201C230.272 28.0622 230.37 28.5544 230.434 29.0967V29.5547C230.374 30.0833 230.274 30.5664 230.133 31.0039C229.992 31.4414 229.805 31.8197 229.572 32.1387C229.34 32.4577 229.053 32.7038 228.711 32.877C228.374 33.0501 227.975 33.1367 227.515 33.1367C227.063 33.1367 226.656 33.0433 226.291 32.8564C225.931 32.6696 225.621 32.4076 225.361 32.0703C225.106 31.7331 224.91 31.3366 224.773 30.8809C224.637 30.4206 224.568 29.9215 224.568 29.3838ZM226.216 29.2402V29.3838C226.216 29.721 226.248 30.0355 226.312 30.3271C226.38 30.6188 226.482 30.8763 226.619 31.0996C226.76 31.3184 226.938 31.4915 227.152 31.6191C227.371 31.7422 227.629 31.8037 227.925 31.8037C228.312 31.8037 228.629 31.7217 228.875 31.5576C229.126 31.3936 229.317 31.1725 229.449 30.8945C229.586 30.612 229.682 30.2975 229.736 29.9512V28.7139C229.709 28.445 229.652 28.1943 229.565 27.9619C229.483 27.7295 229.372 27.5267 229.23 27.3535C229.089 27.1758 228.911 27.0391 228.697 26.9434C228.483 26.8431 228.23 26.793 227.938 26.793C227.642 26.793 227.385 26.8568 227.166 26.9844C226.947 27.112 226.767 27.2874 226.626 27.5107C226.489 27.734 226.387 27.9938 226.318 28.29C226.25 28.5863 226.216 28.903 226.216 29.2402ZM234.562 22.5V33H232.908V22.5H234.562ZM239.628 33.1367C239.081 33.1367 238.587 33.0479 238.145 32.8701C237.707 32.6878 237.333 32.4349 237.023 32.1113C236.718 31.7878 236.483 31.4072 236.319 30.9697C236.155 30.5322 236.073 30.0605 236.073 29.5547V29.2812C236.073 28.7025 236.158 28.1784 236.326 27.709C236.495 27.2396 236.729 26.8385 237.03 26.5059C237.331 26.1686 237.687 25.9111 238.097 25.7334C238.507 25.5557 238.951 25.4668 239.43 25.4668C239.958 25.4668 240.421 25.5557 240.817 25.7334C241.214 25.9111 241.542 26.1618 241.802 26.4854C242.066 26.8044 242.262 27.1849 242.39 27.627C242.522 28.069 242.588 28.5566 242.588 29.0898V29.7939H236.873V28.6113H240.961V28.4814C240.952 28.1852 240.893 27.9072 240.783 27.6475C240.678 27.3877 240.517 27.1781 240.298 27.0186C240.079 26.859 239.787 26.7793 239.423 26.7793C239.149 26.7793 238.906 26.8385 238.691 26.957C238.482 27.071 238.306 27.2373 238.165 27.4561C238.024 27.6748 237.914 27.9391 237.837 28.249C237.764 28.5544 237.728 28.8984 237.728 29.2812V29.5547C237.728 29.8783 237.771 30.179 237.857 30.457C237.949 30.7305 238.081 30.9697 238.254 31.1748C238.427 31.3799 238.637 31.5417 238.883 31.6602C239.129 31.7741 239.409 31.8311 239.724 31.8311C240.12 31.8311 240.473 31.7513 240.783 31.5918C241.093 31.4323 241.362 31.2067 241.59 30.915L242.458 31.7559C242.299 31.9883 242.091 32.2116 241.836 32.4258C241.581 32.6354 241.269 32.8063 240.899 32.9385C240.535 33.0706 240.111 33.1367 239.628 33.1367Z" fill="#1F1F1F"/>
<rect x="0.5" y="0.5" width="319" height="55" rx="16" />
<defs>
<clipPath id="clip0_760_7197">
<rect width="20" height="20" fill="white" transform="translate(92 18)"/>
</clipPath>
</defs>
</svg>
