<svg width="150" height="32" viewBox="0 0 189 40" fill="none" xmlns="http://www.w3.org/2000/svg">
<rect width="189" height="40" rx="14" fill="black"/>
<path d="M25.2461 15.6919C25.3822 15.6919 25.6141 15.7135 25.9419 15.7568C26.2697 15.8001 26.6284 15.9238 27.0181 16.1279C27.4139 16.3258 27.7726 16.6567 28.0942 17.1206C28.0757 17.1392 27.986 17.2072 27.8252 17.3247C27.6644 17.436 27.485 17.603 27.2871 17.8257C27.0892 18.0422 26.916 18.3205 26.7676 18.6606C26.6191 18.9946 26.5449 19.3936 26.5449 19.8574C26.5449 20.3893 26.6377 20.8408 26.8232 21.2119C27.015 21.583 27.2345 21.883 27.4819 22.1118C27.7355 22.3345 27.9582 22.4984 28.1499 22.6035C28.3478 22.7087 28.453 22.7643 28.4653 22.7705C28.4591 22.7952 28.3787 23.0148 28.2241 23.4292C28.0757 23.8436 27.8283 24.3044 27.4819 24.8115C27.1789 25.2507 26.8511 25.6558 26.4985 26.0269C26.1522 26.3979 25.7347 26.5835 25.2461 26.5835C24.9183 26.5835 24.6493 26.5371 24.439 26.4443C24.2287 26.3454 24.0122 26.2495 23.7896 26.1567C23.5669 26.0578 23.2669 26.0083 22.8896 26.0083C22.5247 26.0083 22.2186 26.0578 21.9712 26.1567C21.73 26.2557 21.498 26.3547 21.2754 26.4536C21.0589 26.5526 20.8022 26.6021 20.5054 26.6021C20.0539 26.6021 19.658 26.4227 19.3179 26.064C18.9777 25.7052 18.6283 25.2754 18.2695 24.7744C17.8551 24.1807 17.4995 23.457 17.2026 22.6035C16.9119 21.7438 16.7666 20.8779 16.7666 20.0059C16.7666 19.0719 16.9429 18.2896 17.2954 17.6587C17.6479 17.0216 18.0994 16.5423 18.6499 16.2207C19.2065 15.8929 19.7817 15.729 20.3755 15.729C20.6909 15.729 20.9878 15.7816 21.2661 15.8867C21.5444 15.9857 21.8042 16.0877 22.0454 16.1929C22.2928 16.298 22.5155 16.3506 22.7134 16.3506C22.9051 16.3506 23.1278 16.2949 23.3813 16.1836C23.6349 16.0723 23.9194 15.964 24.2349 15.8589C24.5503 15.7476 24.8874 15.6919 25.2461 15.6919ZM24.7358 14.5137C24.4946 14.8044 24.1916 15.0487 23.8267 15.2466C23.4618 15.4383 23.1154 15.5342 22.7876 15.5342C22.7196 15.5342 22.6546 15.528 22.5928 15.5156C22.5866 15.4971 22.5804 15.4631 22.5742 15.4136C22.568 15.3641 22.5649 15.3115 22.5649 15.2559C22.5649 14.8848 22.6453 14.526 22.8062 14.1797C22.967 13.8271 23.1494 13.5365 23.3535 13.3076C23.6133 12.9984 23.9411 12.7417 24.3369 12.5376C24.7327 12.3335 25.11 12.2253 25.4688 12.2129C25.4873 12.2933 25.4966 12.3892 25.4966 12.5005C25.4966 12.8716 25.4255 13.2334 25.2832 13.5859C25.141 13.9323 24.9585 14.2415 24.7358 14.5137Z" fill="white"/>
<path d="M39.832 25.2461C38.8978 25.2461 38.0911 25.0365 37.4121 24.6172C36.7376 24.1979 36.2158 23.6032 35.8467 22.833C35.4821 22.0583 35.2998 21.14 35.2998 20.0781V20.0645C35.2998 18.998 35.4821 18.0798 35.8467 17.3096C36.2158 16.5348 36.7376 15.9378 37.4121 15.5186C38.0866 15.0993 38.891 14.8896 39.8252 14.8896C40.5726 14.8896 41.2471 15.0378 41.8486 15.334C42.4502 15.6257 42.9401 16.0312 43.3184 16.5508C43.6966 17.0658 43.9245 17.6582 44.002 18.3281L43.9951 18.3828H42.2725L42.2656 18.3486C42.1836 17.9613 42.0286 17.624 41.8008 17.3369C41.5729 17.0452 41.2904 16.8197 40.9531 16.6602C40.6159 16.4961 40.2399 16.4141 39.8252 16.4141C39.2692 16.4141 38.7861 16.5622 38.376 16.8584C37.9658 17.1546 37.6491 17.5762 37.4258 18.123C37.207 18.6654 37.0977 19.3102 37.0977 20.0576V20.0713C37.0977 20.8187 37.207 21.4658 37.4258 22.0127C37.6491 22.5596 37.9658 22.9811 38.376 23.2773C38.7861 23.5736 39.2715 23.7217 39.832 23.7217C40.2513 23.7217 40.6273 23.6488 40.96 23.5029C41.2972 23.3571 41.5775 23.152 41.8008 22.8877C42.0286 22.6188 42.1836 22.3044 42.2656 21.9443L42.2793 21.9033H44.002V21.958C43.9154 22.6143 43.6852 23.1885 43.3115 23.6807C42.9378 24.1729 42.4548 24.5579 41.8623 24.8359C41.2699 25.1094 40.5931 25.2461 39.832 25.2461ZM49.0195 25.1504C48.2767 25.1504 47.6364 24.9954 47.0986 24.6855C46.5609 24.3711 46.1462 23.9245 45.8545 23.3457C45.5674 22.7669 45.4238 22.0742 45.4238 21.2676V21.2539C45.4238 20.4564 45.5697 19.7682 45.8613 19.1895C46.153 18.6061 46.5654 18.1595 47.0986 17.8496C47.6364 17.5397 48.2767 17.3848 49.0195 17.3848C49.7624 17.3848 50.4004 17.5397 50.9336 17.8496C51.4714 18.1595 51.8861 18.6038 52.1777 19.1826C52.4694 19.7614 52.6152 20.4518 52.6152 21.2539V21.2676C52.6152 22.0742 52.4694 22.7669 52.1777 23.3457C51.8906 23.9245 51.4782 24.3711 50.9404 24.6855C50.4072 24.9954 49.7669 25.1504 49.0195 25.1504ZM49.0195 23.7695C49.4115 23.7695 49.7441 23.6715 50.0176 23.4756C50.2956 23.2751 50.5075 22.9902 50.6533 22.6211C50.7992 22.2474 50.8721 21.7985 50.8721 21.2744V21.2607C50.8721 20.7321 50.7992 20.2832 50.6533 19.9141C50.5075 19.5404 50.2956 19.2555 50.0176 19.0596C49.7441 18.859 49.4115 18.7588 49.0195 18.7588C48.6276 18.7588 48.2926 18.859 48.0146 19.0596C47.7367 19.2555 47.5247 19.5404 47.3789 19.9141C47.2331 20.2832 47.1602 20.7321 47.1602 21.2607V21.2744C47.1602 21.7985 47.2331 22.2474 47.3789 22.6211C47.5247 22.9948 47.7344 23.2796 48.0078 23.4756C48.2858 23.6715 48.623 23.7695 49.0195 23.7695ZM54.3242 25V17.5283H56.0264V18.6768H56.1426C56.3203 18.2712 56.5892 17.9544 56.9492 17.7266C57.3092 17.4987 57.7581 17.3848 58.2959 17.3848C59.1299 17.3848 59.7679 17.6263 60.21 18.1094C60.652 18.5924 60.873 19.2783 60.873 20.167V25H59.1709V20.5635C59.1709 19.9801 59.0479 19.5426 58.8018 19.251C58.5602 18.9593 58.182 18.8135 57.667 18.8135C57.3298 18.8135 57.0381 18.8887 56.792 19.0391C56.5459 19.1895 56.3568 19.4014 56.2246 19.6748C56.0924 19.9482 56.0264 20.2718 56.0264 20.6455V25H54.3242ZM65.8223 25.0342C64.9655 25.0342 64.348 24.877 63.9697 24.5625C63.5915 24.248 63.4023 23.7331 63.4023 23.0176V18.8477H62.2402V17.5283H63.4023V15.6963H65.1318V17.5283H66.7041V18.8477H65.1318V22.6143C65.1318 22.9834 65.2093 23.2546 65.3643 23.4277C65.5238 23.5964 65.779 23.6807 66.1299 23.6807C66.2529 23.6807 66.3532 23.6784 66.4307 23.6738C66.5127 23.6647 66.6038 23.6556 66.7041 23.6465V24.959C66.5856 24.9818 66.4489 25 66.2939 25.0137C66.1436 25.0273 65.9863 25.0342 65.8223 25.0342ZM68.4268 25V17.5283H70.1221V25H68.4268ZM69.2812 16.2773C69.0033 16.2773 68.764 16.1794 68.5635 15.9834C68.363 15.7874 68.2627 15.5527 68.2627 15.2793C68.2627 14.9967 68.363 14.7598 68.5635 14.5684C68.764 14.3724 69.0033 14.2744 69.2812 14.2744C69.5592 14.2744 69.7962 14.3724 69.9922 14.5684C70.1927 14.7598 70.293 14.9967 70.293 15.2793C70.293 15.5527 70.1927 15.7874 69.9922 15.9834C69.7962 16.1794 69.5592 16.2773 69.2812 16.2773ZM72.2207 25V17.5283H73.9229V18.6768H74.0391C74.2168 18.2712 74.4857 17.9544 74.8457 17.7266C75.2057 17.4987 75.6546 17.3848 76.1924 17.3848C77.0264 17.3848 77.6644 17.6263 78.1064 18.1094C78.5485 18.5924 78.7695 19.2783 78.7695 20.167V25H77.0674V20.5635C77.0674 19.9801 76.9443 19.5426 76.6982 19.251C76.4567 18.9593 76.0785 18.8135 75.5635 18.8135C75.2262 18.8135 74.9346 18.8887 74.6885 19.0391C74.4424 19.1895 74.2533 19.4014 74.1211 19.6748C73.9889 19.9482 73.9229 20.2718 73.9229 20.6455V25H72.2207ZM83.2539 25.1504C82.6979 25.1504 82.2308 25.0433 81.8525 24.8291C81.4743 24.6104 81.1895 24.2936 80.998 23.8789C80.8066 23.4596 80.7109 22.9538 80.7109 22.3613V17.5283H82.4131V21.9717C82.4131 22.5505 82.527 22.9857 82.7549 23.2773C82.9827 23.569 83.3542 23.7148 83.8691 23.7148C84.1426 23.7148 84.3841 23.6738 84.5938 23.5918C84.8079 23.5052 84.9857 23.3822 85.127 23.2227C85.2682 23.0632 85.3753 22.8717 85.4482 22.6484C85.5212 22.4206 85.5576 22.1654 85.5576 21.8828V17.5283H87.2598V25H85.5576V23.8652H85.4414C85.3275 24.1296 85.168 24.3597 84.9629 24.5557C84.7578 24.7471 84.5117 24.8952 84.2246 25C83.9375 25.1003 83.6139 25.1504 83.2539 25.1504ZM92.5371 25.1504C91.7943 25.1504 91.1562 24.9932 90.623 24.6787C90.0944 24.3643 89.6865 23.9176 89.3994 23.3389C89.1123 22.7601 88.9688 22.0742 88.9688 21.2812V21.2744C88.9688 20.4906 89.11 19.807 89.3926 19.2236C89.6797 18.6403 90.0853 18.1891 90.6094 17.8701C91.1335 17.5465 91.7487 17.3848 92.4551 17.3848C93.166 17.3848 93.7767 17.542 94.2871 17.8564C94.8021 18.1663 95.1986 18.6016 95.4766 19.1621C95.7546 19.7227 95.8936 20.3789 95.8936 21.1309V21.6914H89.8232V20.5498H95.0596L94.2529 21.6162V20.9395C94.2529 20.4427 94.1777 20.0303 94.0273 19.7021C93.877 19.374 93.6673 19.1279 93.3984 18.9639C93.1341 18.7998 92.8265 18.7178 92.4756 18.7178C92.1247 18.7178 91.8125 18.8044 91.5391 18.9775C91.2702 19.1462 91.056 19.3968 90.8965 19.7295C90.7415 20.0576 90.6641 20.4609 90.6641 20.9395V21.623C90.6641 22.0833 90.7415 22.4775 90.8965 22.8057C91.0514 23.1292 91.2702 23.3799 91.5527 23.5576C91.8398 23.7308 92.1794 23.8174 92.5713 23.8174C92.8766 23.8174 93.1387 23.7741 93.3574 23.6875C93.5807 23.5964 93.7607 23.4893 93.8975 23.3662C94.0342 23.2386 94.1299 23.1178 94.1846 23.0039L94.2051 22.9561H95.8184L95.8047 23.0176C95.7454 23.2591 95.6361 23.5052 95.4766 23.7559C95.3216 24.002 95.1097 24.2321 94.8408 24.4463C94.5765 24.6559 94.2529 24.8268 93.8701 24.959C93.4873 25.0866 93.043 25.1504 92.5371 25.1504ZM102.757 25L100.727 17.5283H102.436L103.673 23.1475H103.796L105.231 17.5283H106.852L108.294 23.1475H108.417L109.654 17.5283H111.343L109.312 25H107.535L106.079 19.5859H105.963L104.514 25H102.757ZM112.833 25V17.5283H114.528V25H112.833ZM113.688 16.2773C113.41 16.2773 113.17 16.1794 112.97 15.9834C112.769 15.7874 112.669 15.5527 112.669 15.2793C112.669 14.9967 112.769 14.7598 112.97 14.5684C113.17 14.3724 113.41 14.2744 113.688 14.2744C113.965 14.2744 114.202 14.3724 114.398 14.5684C114.599 14.7598 114.699 14.9967 114.699 15.2793C114.699 15.5527 114.599 15.7874 114.398 15.9834C114.202 16.1794 113.965 16.2773 113.688 16.2773ZM119.566 25.0342C118.71 25.0342 118.092 24.877 117.714 24.5625C117.336 24.248 117.146 23.7331 117.146 23.0176V18.8477H115.984V17.5283H117.146V15.6963H118.876V17.5283H120.448V18.8477H118.876V22.6143C118.876 22.9834 118.953 23.2546 119.108 23.4277C119.268 23.5964 119.523 23.6807 119.874 23.6807C119.997 23.6807 120.097 23.6784 120.175 23.6738C120.257 23.6647 120.348 23.6556 120.448 23.6465V24.959C120.33 24.9818 120.193 25 120.038 25.0137C119.888 25.0273 119.73 25.0342 119.566 25.0342ZM122.219 25V14.6367H123.921V18.6768H124.037C124.215 18.2712 124.484 17.9544 124.844 17.7266C125.204 17.4987 125.653 17.3848 126.19 17.3848C126.746 17.3848 127.216 17.4941 127.599 17.7129C127.981 17.9271 128.271 18.2415 128.467 18.6562C128.667 19.071 128.768 19.5745 128.768 20.167V25H127.065V20.5635C127.065 19.9801 126.942 19.5426 126.696 19.251C126.455 18.9593 126.076 18.8135 125.562 18.8135C125.224 18.8135 124.933 18.8887 124.687 19.0391C124.44 19.1895 124.251 19.4014 124.119 19.6748C123.987 19.9482 123.921 20.2718 123.921 20.6455V25H122.219ZM133.956 25L137.456 15.1357H138.919V16.9678H138.393L135.802 25H133.956ZM135.72 22.4502L136.178 21.0898H140.703L141.161 22.4502H135.72ZM141.1 25L138.509 16.9678V15.1357H139.438L142.945 25H141.1ZM144.463 27.4814V17.5283H146.165V18.6973H146.281C146.418 18.4284 146.596 18.1982 146.814 18.0068C147.038 17.8154 147.295 17.6673 147.587 17.5625C147.879 17.4577 148.2 17.4053 148.551 17.4053C149.175 17.4053 149.715 17.5625 150.171 17.877C150.631 18.1914 150.987 18.638 151.237 19.2168C151.493 19.791 151.62 20.4723 151.62 21.2607V21.2744C151.62 22.0674 151.495 22.751 151.244 23.3252C150.993 23.8994 150.638 24.3438 150.178 24.6582C149.722 24.9681 149.18 25.123 148.551 25.123C148.209 25.123 147.89 25.0706 147.594 24.9658C147.298 24.8564 147.038 24.7038 146.814 24.5078C146.591 24.3118 146.413 24.0794 146.281 23.8105H146.165V27.4814H144.463ZM148.018 23.6875C148.405 23.6875 148.738 23.5918 149.016 23.4004C149.294 23.2044 149.508 22.9264 149.658 22.5664C149.809 22.2018 149.884 21.7712 149.884 21.2744V21.2607C149.884 20.7549 149.809 20.3219 149.658 19.9619C149.508 19.6019 149.294 19.3262 149.016 19.1348C148.738 18.9388 148.405 18.8408 148.018 18.8408C147.63 18.8408 147.295 18.9388 147.013 19.1348C146.735 19.3262 146.518 19.6019 146.363 19.9619C146.213 20.3219 146.138 20.7526 146.138 21.2539V21.2676C146.138 21.7689 146.213 22.2018 146.363 22.5664C146.518 22.9264 146.737 23.2044 147.02 23.4004C147.302 23.5918 147.635 23.6875 148.018 23.6875ZM153.336 27.4814V17.5283H155.038V18.6973H155.154C155.291 18.4284 155.469 18.1982 155.688 18.0068C155.911 17.8154 156.168 17.6673 156.46 17.5625C156.752 17.4577 157.073 17.4053 157.424 17.4053C158.048 17.4053 158.588 17.5625 159.044 17.877C159.504 18.1914 159.86 18.638 160.11 19.2168C160.366 19.791 160.493 20.4723 160.493 21.2607V21.2744C160.493 22.0674 160.368 22.751 160.117 23.3252C159.867 23.8994 159.511 24.3438 159.051 24.6582C158.595 24.9681 158.053 25.123 157.424 25.123C157.082 25.123 156.763 25.0706 156.467 24.9658C156.171 24.8564 155.911 24.7038 155.688 24.5078C155.464 24.3118 155.286 24.0794 155.154 23.8105H155.038V27.4814H153.336ZM156.891 23.6875C157.278 23.6875 157.611 23.5918 157.889 23.4004C158.167 23.2044 158.381 22.9264 158.531 22.5664C158.682 22.2018 158.757 21.7712 158.757 21.2744V21.2607C158.757 20.7549 158.682 20.3219 158.531 19.9619C158.381 19.6019 158.167 19.3262 157.889 19.1348C157.611 18.9388 157.278 18.8408 156.891 18.8408C156.503 18.8408 156.168 18.9388 155.886 19.1348C155.608 19.3262 155.391 19.6019 155.236 19.9619C155.086 20.3219 155.011 20.7526 155.011 21.2539V21.2676C155.011 21.7689 155.086 22.2018 155.236 22.5664C155.391 22.9264 155.61 23.2044 155.893 23.4004C156.175 23.5918 156.508 23.6875 156.891 23.6875ZM162.277 25V14.6367H163.979V25H162.277ZM169.318 25.1504C168.576 25.1504 167.938 24.9932 167.404 24.6787C166.876 24.3643 166.468 23.9176 166.181 23.3389C165.894 22.7601 165.75 22.0742 165.75 21.2812V21.2744C165.75 20.4906 165.891 19.807 166.174 19.2236C166.461 18.6403 166.867 18.1891 167.391 17.8701C167.915 17.5465 168.53 17.3848 169.236 17.3848C169.947 17.3848 170.558 17.542 171.068 17.8564C171.583 18.1663 171.98 18.6016 172.258 19.1621C172.536 19.7227 172.675 20.3789 172.675 21.1309V21.6914H166.604V20.5498H171.841L171.034 21.6162V20.9395C171.034 20.4427 170.959 20.0303 170.809 19.7021C170.658 19.374 170.449 19.1279 170.18 18.9639C169.915 18.7998 169.608 18.7178 169.257 18.7178C168.906 18.7178 168.594 18.8044 168.32 18.9775C168.051 19.1462 167.837 19.3968 167.678 19.7295C167.523 20.0576 167.445 20.4609 167.445 20.9395V21.623C167.445 22.0833 167.523 22.4775 167.678 22.8057C167.833 23.1292 168.051 23.3799 168.334 23.5576C168.621 23.7308 168.961 23.8174 169.353 23.8174C169.658 23.8174 169.92 23.7741 170.139 23.6875C170.362 23.5964 170.542 23.4893 170.679 23.3662C170.815 23.2386 170.911 23.1178 170.966 23.0039L170.986 22.9561H172.6L172.586 23.0176C172.527 23.2591 172.417 23.5052 172.258 23.7559C172.103 24.002 171.891 24.2321 171.622 24.4463C171.358 24.6559 171.034 24.8268 170.651 24.959C170.269 25.0866 169.824 25.1504 169.318 25.1504Z" fill="white"/>
</svg>
